<svg width="100" height="100" viewBox="0 0 100 100" fill="none" xmlns="http://www.w3.org/2000/svg">
<path d="M95 50C95 74.8528 74.8528 95 50 95C25.1472 95 5 74.8528 5 50C5 25.1472 25.1472 5 50 5C74.8528 5 95 25.1472 95 50Z" stroke="white" stroke-width="10"/>
<path d="M44.7344 72V42.19H55.1844V72H44.7344ZM49.9594 38.89C48.0527 38.89 46.5127 38.3583 45.3394 37.295C44.1661 36.2317 43.5794 34.9117 43.5794 33.335C43.5794 31.7583 44.1661 30.4383 45.3394 29.375C46.5127 28.3117 48.0527 27.78 49.9594 27.78C51.8661 27.78 53.4061 28.2933 54.5794 29.32C55.7527 30.31 56.3394 31.5933 56.3394 33.17C56.3394 34.82 55.7527 36.195 54.5794 37.295C53.4427 38.3583 51.9027 38.89 49.9594 38.89Z" fill="white"/>
</svg>
