<svg width="219" height="219" viewBox="0 0 219 219" fill="none" xmlns="http://www.w3.org/2000/svg">
<path d="M102 4.33013C106.641 1.65064 112.359 1.65064 117 4.33013L196.83 50.4199C201.471 53.0994 204.33 58.0513 204.33 63.4103V155.59C204.33 160.949 201.471 165.901 196.83 168.58L117 214.67C112.359 217.349 106.641 217.349 102 214.67L22.1702 168.58C17.5292 165.901 14.6702 160.949 14.6702 155.59V63.4103C14.6702 58.0513 17.5292 53.0994 22.1702 50.4199L102 4.33013Z" fill="#E7B95E"/>
<g style="mix-blend-mode:soft-light">
<path d="M101.5 64.6188C106.45 61.7607 112.55 61.7607 117.5 64.6188L144.368 80.1312C149.319 82.9893 152.368 88.2714 152.368 93.9876V125.012C152.368 130.729 149.319 136.011 144.368 138.869L117.5 154.381C112.55 157.239 106.45 157.239 101.5 154.381L74.6317 138.869C69.6813 136.011 66.6317 130.729 66.6317 125.012V93.9876C66.6317 88.2714 69.6813 82.9893 74.6317 80.1312L101.5 64.6188Z" fill="black"/>
</g>
</svg>
