<svg width="163" height="94" viewBox="0 0 163 94" fill="none" xmlns="http://www.w3.org/2000/svg">
<rect x="52" y="87" width="7" height="1" fill="#E7B95E"/>
<rect x="103" y="87" width="7" height="1" fill="#E7B95E"/>
<path d="M62.6237 91V90.184L66.0437 86.884C66.3477 86.596 66.5717 86.344 66.7157 86.128C66.8677 85.904 66.9677 85.7 67.0157 85.516C67.0717 85.324 67.0997 85.14 67.0997 84.964C67.0997 84.532 66.9477 84.192 66.6437 83.944C66.3397 83.696 65.8957 83.572 65.3117 83.572C64.8637 83.572 64.4597 83.648 64.0997 83.8C63.7397 83.944 63.4277 84.172 63.1637 84.484L62.3477 83.776C62.6677 83.368 63.0957 83.056 63.6317 82.84C64.1757 82.616 64.7717 82.504 65.4197 82.504C66.0037 82.504 66.5117 82.6 66.9437 82.792C67.3757 82.976 67.7077 83.244 67.9397 83.596C68.1797 83.948 68.2997 84.364 68.2997 84.844C68.2997 85.116 68.2637 85.384 68.1917 85.648C68.1197 85.912 67.9837 86.192 67.7837 86.488C67.5837 86.784 67.2957 87.116 66.9197 87.484L63.8717 90.424L63.5837 89.956H68.6597V91H62.6237ZM76.0666 91.096C75.4106 91.096 74.8226 90.928 74.3026 90.592C73.7906 90.256 73.3826 89.768 73.0786 89.128C72.7826 88.488 72.6346 87.712 72.6346 86.8C72.6346 85.888 72.7826 85.112 73.0786 84.472C73.3826 83.832 73.7906 83.344 74.3026 83.008C74.8226 82.672 75.4106 82.504 76.0666 82.504C76.7146 82.504 77.2986 82.672 77.8186 83.008C78.3386 83.344 78.7466 83.832 79.0426 84.472C79.3386 85.112 79.4866 85.888 79.4866 86.8C79.4866 87.712 79.3386 88.488 79.0426 89.128C78.7466 89.768 78.3386 90.256 77.8186 90.592C77.2986 90.928 76.7146 91.096 76.0666 91.096ZM76.0666 90.028C76.5066 90.028 76.8906 89.908 77.2186 89.668C77.5546 89.428 77.8146 89.068 77.9986 88.588C78.1906 88.108 78.2866 87.512 78.2866 86.8C78.2866 86.088 78.1906 85.492 77.9986 85.012C77.8146 84.532 77.5546 84.172 77.2186 83.932C76.8906 83.692 76.5066 83.572 76.0666 83.572C75.6266 83.572 75.2386 83.692 74.9026 83.932C74.5666 84.172 74.3026 84.532 74.1106 85.012C73.9266 85.492 73.8346 86.088 73.8346 86.8C73.8346 87.512 73.9266 88.108 74.1106 88.588C74.3026 89.068 74.5666 89.428 74.9026 89.668C75.2386 89.908 75.6266 90.028 76.0666 90.028ZM83.5065 91V90.184L86.9265 86.884C87.2305 86.596 87.4545 86.344 87.5985 86.128C87.7505 85.904 87.8505 85.7 87.8985 85.516C87.9545 85.324 87.9825 85.14 87.9825 84.964C87.9825 84.532 87.8305 84.192 87.5265 83.944C87.2225 83.696 86.7785 83.572 86.1945 83.572C85.7465 83.572 85.3425 83.648 84.9825 83.8C84.6225 83.944 84.3105 84.172 84.0465 84.484L83.2305 83.776C83.5505 83.368 83.9785 83.056 84.5145 82.84C85.0585 82.616 85.6545 82.504 86.3025 82.504C86.8865 82.504 87.3945 82.6 87.8265 82.792C88.2585 82.976 88.5905 83.244 88.8225 83.596C89.0625 83.948 89.1825 84.364 89.1825 84.844C89.1825 85.116 89.1465 85.384 89.0745 85.648C89.0025 85.912 88.8665 86.192 88.6665 86.488C88.4665 86.784 88.1785 87.116 87.8025 87.484L84.7545 90.424L84.4665 89.956H89.5425V91H83.5065ZM96.0971 91.096C95.5051 91.096 94.9291 91.004 94.3691 90.82C93.8171 90.636 93.3651 90.388 93.0131 90.076L93.5651 89.128C93.8451 89.392 94.2091 89.608 94.6571 89.776C95.1051 89.944 95.5851 90.028 96.0971 90.028C96.7211 90.028 97.2051 89.896 97.5491 89.632C97.9011 89.36 98.0771 88.996 98.0771 88.54C98.0771 88.1 97.9091 87.748 97.5731 87.484C97.2451 87.212 96.7211 87.076 96.0011 87.076H95.3291V86.236L97.8251 83.164L97.9931 83.644H93.3971V82.6H98.9411V83.416L96.4571 86.476L95.8331 86.104H96.2291C97.2451 86.104 98.0051 86.332 98.5091 86.788C99.0211 87.244 99.2771 87.824 99.2771 88.528C99.2771 89 99.1611 89.432 98.9291 89.824C98.6971 90.216 98.3451 90.528 97.8731 90.76C97.4091 90.984 96.8171 91.096 96.0971 91.096Z" fill="#E7B95E"/>
<path d="M18.9014 75.096C18.2614 75.096 17.6494 75 17.0654 74.808C16.4814 74.608 16.0214 74.352 15.6854 74.04L16.1294 73.104C16.4494 73.384 16.8574 73.616 17.3534 73.8C17.8494 73.984 18.3654 74.076 18.9014 74.076C19.3894 74.076 19.7854 74.02 20.0894 73.908C20.3934 73.796 20.6174 73.644 20.7614 73.452C20.9054 73.252 20.9774 73.028 20.9774 72.78C20.9774 72.492 20.8814 72.26 20.6894 72.084C20.5054 71.908 20.2614 71.768 19.9574 71.664C19.6614 71.552 19.3334 71.456 18.9734 71.376C18.6134 71.296 18.2494 71.204 17.8814 71.1C17.5214 70.988 17.1894 70.848 16.8854 70.68C16.5894 70.512 16.3494 70.288 16.1654 70.008C15.9814 69.72 15.8894 69.352 15.8894 68.904C15.8894 68.472 16.0014 68.076 16.2254 67.716C16.4574 67.348 16.8094 67.056 17.2814 66.84C17.7614 66.616 18.3694 66.504 19.1054 66.504C19.5934 66.504 20.0774 66.568 20.5574 66.696C21.0374 66.824 21.4534 67.008 21.8054 67.248L21.4094 68.208C21.0494 67.968 20.6694 67.796 20.2694 67.692C19.8694 67.58 19.4814 67.524 19.1054 67.524C18.6334 67.524 18.2454 67.584 17.9414 67.704C17.6374 67.824 17.4134 67.984 17.2694 68.184C17.1334 68.384 17.0654 68.608 17.0654 68.856C17.0654 69.152 17.1574 69.388 17.3414 69.564C17.5334 69.74 17.7774 69.88 18.0734 69.984C18.3774 70.088 18.7094 70.184 19.0694 70.272C19.4294 70.352 19.7894 70.444 20.1494 70.548C20.5174 70.652 20.8494 70.788 21.1454 70.956C21.4494 71.124 21.6934 71.348 21.8774 71.628C22.0614 71.908 22.1534 72.268 22.1534 72.708C22.1534 73.132 22.0374 73.528 21.8054 73.896C21.5734 74.256 21.2134 74.548 20.7254 74.772C20.2454 74.988 19.6374 75.096 18.9014 75.096ZM27.9985 70.224H32.3185V71.244H27.9985V70.224ZM28.1065 73.956H33.0025V75H26.9065V66.6H32.8345V67.644H28.1065V73.956ZM36.7478 75L40.2398 70.236V71.16L36.9398 66.6H38.3078L40.9238 70.188L40.3838 70.2L42.9878 66.6H44.2958L41.0198 71.088V70.224L44.5118 75H43.1318L40.3478 71.172H40.8758L38.1278 75H36.7478ZM50.2307 75V67.644H47.3507V66.6H54.2987V67.644H51.4187V75H50.2307ZM56.9118 75L60.7158 66.6H61.9038L65.7198 75H64.4598L61.0638 67.272H61.5438L58.1478 75H56.9118ZM58.5318 72.9L58.8558 71.94H63.5838L63.9318 72.9H58.5318ZM77.2875 70.224H81.6075V71.244H77.2875V70.224ZM77.3955 73.956H82.2915V75H76.1955V66.6H82.1235V67.644H77.3955V73.956ZM87.2346 75V66.6H90.7746C91.6706 66.6 92.4586 66.776 93.1386 67.128C93.8266 67.48 94.3586 67.972 94.7346 68.604C95.1186 69.236 95.3106 69.968 95.3106 70.8C95.3106 71.632 95.1186 72.364 94.7346 72.996C94.3586 73.628 93.8266 74.12 93.1386 74.472C92.4586 74.824 91.6706 75 90.7746 75H87.2346ZM88.4346 73.956H90.7026C91.3986 73.956 91.9986 73.824 92.5026 73.56C93.0146 73.296 93.4106 72.928 93.6906 72.456C93.9706 71.976 94.1106 71.424 94.1106 70.8C94.1106 70.168 93.9706 69.616 93.6906 69.144C93.4106 68.672 93.0146 68.304 92.5026 68.04C91.9986 67.776 91.3986 67.644 90.7026 67.644H88.4346V73.956ZM100.149 75V66.6H101.349V75H100.149ZM110.62 75.096C109.98 75.096 109.388 74.992 108.844 74.784C108.308 74.568 107.84 74.268 107.44 73.884C107.048 73.492 106.74 73.036 106.516 72.516C106.292 71.996 106.18 71.424 106.18 70.8C106.18 70.176 106.292 69.604 106.516 69.084C106.74 68.564 107.052 68.112 107.452 67.728C107.852 67.336 108.32 67.036 108.856 66.828C109.4 66.612 109.992 66.504 110.632 66.504C111.28 66.504 111.876 66.616 112.42 66.84C112.972 67.056 113.44 67.38 113.824 67.812L113.044 68.568C112.724 68.232 112.364 67.984 111.964 67.824C111.564 67.656 111.136 67.572 110.68 67.572C110.208 67.572 109.768 67.652 109.36 67.812C108.96 67.972 108.612 68.196 108.316 68.484C108.02 68.772 107.788 69.116 107.62 69.516C107.46 69.908 107.38 70.336 107.38 70.8C107.38 71.264 107.46 71.696 107.62 72.096C107.788 72.488 108.02 72.828 108.316 73.116C108.612 73.404 108.96 73.628 109.36 73.788C109.768 73.948 110.208 74.028 110.68 74.028C111.136 74.028 111.564 73.948 111.964 73.788C112.364 73.62 112.724 73.364 113.044 73.02L113.824 73.776C113.44 74.208 112.972 74.536 112.42 74.76C111.876 74.984 111.276 75.096 110.62 75.096ZM118.535 75V66.6H119.735V75H118.535ZM129.042 75.096C128.402 75.096 127.806 74.988 127.254 74.772C126.71 74.556 126.238 74.256 125.838 73.872C125.438 73.48 125.126 73.024 124.902 72.504C124.678 71.984 124.566 71.416 124.566 70.8C124.566 70.184 124.678 69.616 124.902 69.096C125.126 68.576 125.438 68.124 125.838 67.74C126.238 67.348 126.71 67.044 127.254 66.828C127.798 66.612 128.394 66.504 129.042 66.504C129.682 66.504 130.27 66.612 130.806 66.828C131.35 67.036 131.822 67.336 132.222 67.728C132.63 68.112 132.942 68.564 133.158 69.084C133.382 69.604 133.494 70.176 133.494 70.8C133.494 71.424 133.382 71.996 133.158 72.516C132.942 73.036 132.63 73.492 132.222 73.884C131.822 74.268 131.35 74.568 130.806 74.784C130.27 74.992 129.682 75.096 129.042 75.096ZM129.042 74.028C129.506 74.028 129.934 73.948 130.326 73.788C130.726 73.628 131.07 73.404 131.358 73.116C131.654 72.82 131.882 72.476 132.042 72.084C132.21 71.692 132.294 71.264 132.294 70.8C132.294 70.336 132.21 69.908 132.042 69.516C131.882 69.124 131.654 68.784 131.358 68.496C131.07 68.2 130.726 67.972 130.326 67.812C129.934 67.652 129.506 67.572 129.042 67.572C128.57 67.572 128.134 67.652 127.734 67.812C127.342 67.972 126.998 68.2 126.702 68.496C126.406 68.784 126.174 69.124 126.006 69.516C125.846 69.908 125.766 70.336 125.766 70.8C125.766 71.264 125.846 71.692 126.006 72.084C126.174 72.476 126.406 72.82 126.702 73.116C126.998 73.404 127.342 73.628 127.734 73.788C128.134 73.948 128.57 74.028 129.042 74.028ZM128.142 65.916L129.774 64.356H131.238L129.222 65.916H128.142ZM138.328 75V66.6H139.312L144.868 73.5H144.352V66.6H145.552V75H144.568L139.012 68.1H139.528V75H138.328Z" fill="#E7B95E"/>
<path d="M51.056 54.464C50.736 55.36 49.776 56 48.816 56C47.856 56 46.896 55.424 46.576 54.464L33.904 19.072C33.2 17.088 31.728 14.912 30.128 13.568L29.488 12.992C29.232 12.736 29.04 12.352 29.04 11.968C29.04 11.584 29.296 11.328 29.68 11.328H43.44C43.952 11.328 44.272 11.648 44.272 12.16C44.272 12.416 44.144 12.736 44.016 12.992L43.248 14.208C42.608 15.168 42.48 16.512 42.864 17.6L52.272 43.776L61.424 18.816C62.064 17.024 61.808 14.784 60.784 13.12C60.656 12.8 60.528 12.352 60.528 12.032V11.968C60.528 11.584 60.72 11.328 61.104 11.328H68.208C68.656 11.328 68.976 11.648 68.976 12.096C68.976 12.416 68.848 12.736 68.592 12.928L67.12 14.208C66.032 15.168 64.944 16.768 64.432 18.112L51.056 54.464ZM80.48 25.536V47.936C80.48 50.048 81.376 52.608 82.72 54.336C82.912 54.592 83.04 54.912 83.04 55.232V55.36C83.04 55.744 82.784 56 82.4 56H69.664C69.28 56 69.024 55.744 69.024 55.36V55.232C69.024 54.912 69.152 54.592 69.344 54.336C70.688 52.672 71.584 50.048 71.584 47.936V32.96C71.584 30.848 70.688 28.288 69.344 26.56C69.152 26.304 69.024 25.984 69.024 25.664V25.536C69.024 25.152 69.28 24.96 69.664 24.896L78.048 23.488C79.52 23.232 80.48 24.064 80.48 25.536ZM69.536 16.512C69.536 12.992 71.904 10.624 75.424 10.624C78.944 10.624 81.248 12.992 81.248 16.512C81.248 20.032 78.944 22.4 75.424 22.4C71.904 22.4 69.536 20.032 69.536 16.512ZM96.099 12.8V47.936C96.099 50.048 96.995 52.608 98.339 54.336C98.531 54.592 98.659 54.912 98.659 55.232V55.36C98.659 55.744 98.403 56 98.019 56H85.283C84.899 56 84.643 55.744 84.643 55.36V55.232C84.643 54.912 84.771 54.592 84.963 54.336C86.307 52.672 87.203 50.048 87.203 47.936V20.224C87.203 18.112 86.307 15.552 84.963 13.824C84.771 13.568 84.643 13.248 84.643 12.928V12.8C84.643 12.416 84.899 12.224 85.283 12.16L93.667 10.688C95.139 10.432 96.099 11.264 96.099 12.8ZM111.724 12.8V47.936C111.724 50.048 112.62 52.608 113.964 54.336C114.156 54.592 114.284 54.912 114.284 55.232V55.36C114.284 55.744 114.028 56 113.644 56H100.908C100.524 56 100.268 55.744 100.268 55.36V55.232C100.268 54.912 100.396 54.592 100.588 54.336C101.932 52.672 102.828 50.048 102.828 47.936V20.224C102.828 18.112 101.932 15.552 100.588 13.824C100.396 13.568 100.268 13.248 100.268 12.928V12.8C100.268 12.416 100.524 12.224 100.908 12.16L109.292 10.688C110.764 10.432 111.724 11.264 111.724 12.8ZM136.629 39.36C131.125 39.36 125.173 40 125.173 46.016C125.173 49.856 127.541 52.8 130.677 52.8C134.133 52.8 136.437 49.216 136.629 43.328V39.36ZM115.893 46.592C115.893 37.312 127.989 36.8 136.629 36.864C136.437 29.312 134.325 25.984 131.381 25.984C128.117 25.984 126.005 29.888 125.173 30.976C124.149 32.384 122.229 33.28 120.309 31.68C118.325 30.016 118.645 27.456 121.717 25.728C123.189 24.896 126.709 23.488 131.637 23.488C140.533 23.488 145.589 28.16 145.589 38.144V49.92C145.589 50.752 145.845 51.2 146.421 51.2C146.869 51.2 147.061 50.88 147.189 50.688C147.573 50.112 147.765 49.92 148.085 49.92C148.405 49.92 148.661 50.176 148.661 50.496V51.2C148.661 54.848 146.741 56.64 143.029 56.64C139.317 56.64 137.397 54.848 136.821 51.456C134.837 54.784 131.637 56.64 127.285 56.64C120.757 56.64 115.893 52.48 115.893 46.592ZM150.724 51.584C150.724 48.576 152.708 46.592 155.716 46.592C158.724 46.592 160.772 48.576 160.772 51.584C160.772 54.592 158.724 56.64 155.716 56.64C152.708 56.64 150.724 54.592 150.724 51.584Z" fill="white"/>
<path d="M0.576 34.048V33.984C0.576 33.792 0.704 33.664 0.896 33.664H7.264C7.456 33.664 7.584 33.792 7.584 33.984V34.048C7.584 34.208 7.52 34.368 7.424 34.496C6.752 35.36 6.304 36.64 6.304 37.696V54.72H10.496C12 54.72 13.856 54.144 15.04 53.216L15.328 52.992C15.488 52.864 15.712 52.8 15.904 52.8C16.096 52.8 16.224 52.928 16.192 53.12L15.968 55.328C15.936 55.712 15.648 56 15.232 56H0.896C0.704 56 0.576 55.872 0.576 55.68V55.616C0.576 55.456 0.64 55.296 0.736 55.168C1.408 54.304 1.856 53.024 1.856 51.968V37.696C1.856 36.64 1.408 35.328 0.736 34.496C0.64 34.368 0.576 34.208 0.576 34.048ZM26.5645 47.68C23.8125 47.68 20.8365 48 20.8365 51.008C20.8365 52.928 22.0205 54.4 23.5885 54.4C25.3165 54.4 26.4685 52.608 26.5645 49.664V47.68ZM16.1965 51.296C16.1965 46.656 22.2445 46.4 26.5645 46.432C26.4685 42.656 25.4125 40.992 23.9405 40.992C22.3085 40.992 21.2525 42.944 20.8365 43.488C20.3245 44.192 19.3645 44.64 18.4045 43.84C17.4125 43.008 17.5725 41.728 19.1085 40.864C19.8445 40.448 21.6045 39.744 24.0685 39.744C28.5165 39.744 31.0445 42.08 31.0445 47.072V52.96C31.0445 53.376 31.1725 53.6 31.4605 53.6C31.6845 53.6 31.7805 53.44 31.8445 53.344C32.0365 53.056 32.1325 52.96 32.2925 52.96C32.4525 52.96 32.5805 53.088 32.5805 53.248V53.6C32.5805 55.424 31.6205 56.32 29.7645 56.32C27.9085 56.32 26.9485 55.424 26.6605 53.728C25.6685 55.392 24.0685 56.32 21.8925 56.32C18.6285 56.32 16.1965 54.24 16.1965 51.296Z" fill="white"/>
</svg>
