<svg width="191" height="97" viewBox="0 0 191 97" fill="none" xmlns="http://www.w3.org/2000/svg">
<path d="M67.248 82.52H73.104C73.872 82.52 74.832 82.264 75.504 81.88L76.432 81.368C76.56 81.304 76.72 81.272 76.816 81.272C77.072 81.272 77.232 81.432 77.2 81.688L76.752 85.912C76.688 86.584 76.176 87 75.504 87H64.016C62.64 87 62.352 86.36 63.28 85.304C67.312 80.824 73.456 73.592 73.456 69.176C73.456 67.384 72.464 65.624 70.608 65.624C68.432 65.624 67.088 67.992 66.768 68.472C66.096 69.56 64.72 70.008 63.92 68.76C63.28 67.768 63.472 66.52 65.04 65.592C66.096 64.952 67.984 64.344 70.096 64.344C74.416 64.344 77.712 66.872 77.712 70.968C77.712 76.92 70.576 80.312 67.248 82.52ZM83.8195 75.8C83.8195 81.88 85.1955 86.04 87.2435 86.04C89.2915 86.04 90.8275 81.976 90.8275 75.768C90.8275 69.432 89.2275 65.624 87.2755 65.624C85.3555 65.624 83.8195 69.4 83.8195 75.8ZM79.3395 75.672C79.3395 68.632 82.6035 64.344 87.1795 64.344C91.7875 64.344 95.2755 68.632 95.2755 75.704C95.2755 82.776 91.7875 87.32 87.2115 87.32C82.6675 87.32 79.3395 82.808 79.3395 75.672ZM100.342 82.52H106.198C106.966 82.52 107.926 82.264 108.598 81.88L109.526 81.368C109.654 81.304 109.814 81.272 109.91 81.272C110.166 81.272 110.326 81.432 110.294 81.688L109.846 85.912C109.782 86.584 109.27 87 108.598 87H97.1098C95.7338 87 95.4458 86.36 96.3738 85.304C100.406 80.824 106.55 73.592 106.55 69.176C106.55 67.384 105.558 65.624 103.702 65.624C101.526 65.624 100.182 67.992 99.8618 68.472C99.1898 69.56 97.8138 70.008 97.0138 68.76C96.3738 67.768 96.5658 66.52 98.1338 65.592C99.1898 64.952 101.078 64.344 103.19 64.344C107.51 64.344 110.806 66.872 110.806 70.968C110.806 76.92 103.67 80.312 100.342 82.52ZM118.036 74.52C120.595 74.264 121.972 72.344 121.972 69.528C121.972 67.608 121.332 65.624 118.996 65.624C116.468 65.624 115.668 67.992 115.188 68.696C114.644 69.56 113.299 70.008 112.5 68.76C111.86 67.768 112.052 66.52 113.62 65.56C114.58 64.984 116.372 64.344 118.964 64.344C123.732 64.344 126.42 66.52 126.42 69.688C126.42 72.472 124.34 74.328 121.396 74.936C125.428 75.32 127.7 77.912 127.7 80.984C127.7 84.664 124.372 87.32 119.06 87.32C117.044 87.32 114.996 86.936 113.652 86.104C112.052 85.144 111.86 83.896 112.5 82.904C113.299 81.688 114.644 82.104 115.188 82.968C115.668 83.672 116.468 86.04 119.028 86.04C121.396 86.04 123.252 83.992 123.252 81.24C123.252 78.04 120.756 76.12 118.036 75.864C117.652 75.832 117.396 75.576 117.396 75.192C117.396 74.808 117.652 74.552 118.036 74.52Z" fill="#E7B95E"/>
<path d="M65.056 54.464C64.736 55.36 63.776 56 62.816 56C61.856 56 60.896 55.424 60.576 54.464L47.904 19.072C47.2 17.088 45.728 14.912 44.128 13.568L43.488 12.992C43.232 12.736 43.04 12.352 43.04 11.968C43.04 11.584 43.296 11.328 43.68 11.328H57.44C57.952 11.328 58.272 11.648 58.272 12.16C58.272 12.416 58.144 12.736 58.016 12.992L57.248 14.208C56.608 15.168 56.48 16.512 56.864 17.6L66.272 43.776L75.424 18.816C76.064 17.024 75.808 14.784 74.784 13.12C74.656 12.8 74.528 12.352 74.528 12.032V11.968C74.528 11.584 74.72 11.328 75.104 11.328H82.208C82.656 11.328 82.976 11.648 82.976 12.096C82.976 12.416 82.848 12.736 82.592 12.928L81.12 14.208C80.032 15.168 78.944 16.768 78.432 18.112L65.056 54.464ZM94.48 25.536V47.936C94.48 50.048 95.376 52.608 96.72 54.336C96.912 54.592 97.04 54.912 97.04 55.232V55.36C97.04 55.744 96.784 56 96.4 56H83.664C83.28 56 83.024 55.744 83.024 55.36V55.232C83.024 54.912 83.152 54.592 83.344 54.336C84.688 52.672 85.584 50.048 85.584 47.936V32.96C85.584 30.848 84.688 28.288 83.344 26.56C83.152 26.304 83.024 25.984 83.024 25.664V25.536C83.024 25.152 83.28 24.96 83.664 24.896L92.048 23.488C93.52 23.232 94.48 24.064 94.48 25.536ZM83.536 16.512C83.536 12.992 85.904 10.624 89.424 10.624C92.944 10.624 95.248 12.992 95.248 16.512C95.248 20.032 92.944 22.4 89.424 22.4C85.904 22.4 83.536 20.032 83.536 16.512ZM110.099 12.8V47.936C110.099 50.048 110.995 52.608 112.339 54.336C112.531 54.592 112.659 54.912 112.659 55.232V55.36C112.659 55.744 112.403 56 112.019 56H99.283C98.899 56 98.643 55.744 98.643 55.36V55.232C98.643 54.912 98.771 54.592 98.963 54.336C100.307 52.672 101.203 50.048 101.203 47.936V20.224C101.203 18.112 100.307 15.552 98.963 13.824C98.771 13.568 98.643 13.248 98.643 12.928V12.8C98.643 12.416 98.899 12.224 99.283 12.16L107.667 10.688C109.139 10.432 110.099 11.264 110.099 12.8ZM125.724 12.8V47.936C125.724 50.048 126.62 52.608 127.964 54.336C128.156 54.592 128.284 54.912 128.284 55.232V55.36C128.284 55.744 128.028 56 127.644 56H114.908C114.524 56 114.268 55.744 114.268 55.36V55.232C114.268 54.912 114.396 54.592 114.588 54.336C115.932 52.672 116.828 50.048 116.828 47.936V20.224C116.828 18.112 115.932 15.552 114.588 13.824C114.396 13.568 114.268 13.248 114.268 12.928V12.8C114.268 12.416 114.524 12.224 114.908 12.16L123.292 10.688C124.764 10.432 125.724 11.264 125.724 12.8ZM150.629 39.36C145.125 39.36 139.173 40 139.173 46.016C139.173 49.856 141.541 52.8 144.677 52.8C148.133 52.8 150.437 49.216 150.629 43.328V39.36ZM129.893 46.592C129.893 37.312 141.989 36.8 150.629 36.864C150.437 29.312 148.325 25.984 145.381 25.984C142.117 25.984 140.005 29.888 139.173 30.976C138.149 32.384 136.229 33.28 134.309 31.68C132.325 30.016 132.645 27.456 135.717 25.728C137.189 24.896 140.709 23.488 145.637 23.488C154.533 23.488 159.589 28.16 159.589 38.144V49.92C159.589 50.752 159.845 51.2 160.421 51.2C160.869 51.2 161.061 50.88 161.189 50.688C161.573 50.112 161.765 49.92 162.085 49.92C162.405 49.92 162.661 50.176 162.661 50.496V51.2C162.661 54.848 160.741 56.64 157.029 56.64C153.317 56.64 151.397 54.848 150.821 51.456C148.837 54.784 145.637 56.64 141.285 56.64C134.757 56.64 129.893 52.48 129.893 46.592ZM164.724 51.584C164.724 48.576 166.708 46.592 169.716 46.592C172.724 46.592 174.772 48.576 174.772 51.584C174.772 54.592 172.724 56.64 169.716 56.64C166.708 56.64 164.724 54.592 164.724 51.584Z" fill="#E7B95E"/>
<path d="M14.576 34.048V33.984C14.576 33.792 14.704 33.664 14.896 33.664H21.264C21.456 33.664 21.584 33.792 21.584 33.984V34.048C21.584 34.208 21.52 34.368 21.424 34.496C20.752 35.36 20.304 36.64 20.304 37.696V54.72H24.496C26 54.72 27.856 54.144 29.04 53.216L29.328 52.992C29.488 52.864 29.712 52.8 29.904 52.8C30.096 52.8 30.224 52.928 30.192 53.12L29.968 55.328C29.936 55.712 29.648 56 29.232 56H14.896C14.704 56 14.576 55.872 14.576 55.68V55.616C14.576 55.456 14.64 55.296 14.736 55.168C15.408 54.304 15.856 53.024 15.856 51.968V37.696C15.856 36.64 15.408 35.328 14.736 34.496C14.64 34.368 14.576 34.208 14.576 34.048ZM40.5645 47.68C37.8125 47.68 34.8365 48 34.8365 51.008C34.8365 52.928 36.0205 54.4 37.5885 54.4C39.3165 54.4 40.4685 52.608 40.5645 49.664V47.68ZM30.1965 51.296C30.1965 46.656 36.2445 46.4 40.5645 46.432C40.4685 42.656 39.4125 40.992 37.9405 40.992C36.3085 40.992 35.2525 42.944 34.8365 43.488C34.3245 44.192 33.3645 44.64 32.4045 43.84C31.4125 43.008 31.5725 41.728 33.1085 40.864C33.8445 40.448 35.6045 39.744 38.0685 39.744C42.5165 39.744 45.0445 42.08 45.0445 47.072V52.96C45.0445 53.376 45.1725 53.6 45.4605 53.6C45.6845 53.6 45.7805 53.44 45.8445 53.344C46.0365 53.056 46.1325 52.96 46.2925 52.96C46.4525 52.96 46.5805 53.088 46.5805 53.248V53.6C46.5805 55.424 45.6205 56.32 43.7645 56.32C41.9085 56.32 40.9485 55.424 40.6605 53.728C39.6685 55.392 38.0685 56.32 35.8925 56.32C32.6285 56.32 30.1965 54.24 30.1965 51.296Z" fill="#E7B95E"/>
<rect x="139" y="76" width="52" height="1" rx="0.5" fill="#E7B95E"/>
<rect y="76" width="52" height="1" rx="0.5" fill="#E7B95E"/>
</svg>
