<svg width="166" height="133" viewBox="0 0 166 133" fill="none" xmlns="http://www.w3.org/2000/svg">
<path fill-rule="evenodd" clip-rule="evenodd" d="M83 21.5C91.5671 21.5 99.8329 23.2904 107.607 26.1969L100.269 33.5349C94.8193 30.64 88.6012 29 82 29C60.4609 29 43 46.4609 43 68C43 74.6012 44.64 80.8193 47.5349 86.2691L34.2856 99.5184C12.9105 87.5685 0 72 0 72C0 72 34.5 21.5 83 21.5ZM59.6661 99.9759L52.06 107.582C61.4443 110.87 71.8326 113 83 113C132 113 165.5 72 165.5 72C165.5 72 149.177 49.7217 124.883 34.7593L113.976 45.6661C118.403 51.9922 121 59.6928 121 68C121 89.5391 103.539 107 82 107C73.6928 107 65.9922 104.403 59.6661 99.9759Z" fill="white"/>
<path fill-rule="evenodd" clip-rule="evenodd" d="M95.7924 38.0117C91.5957 36.0783 86.9238 35 82 35C63.7746 35 49 49.7746 49 68C49 72.9238 50.0783 77.5957 52.0117 81.7924L95.7924 38.0117ZM63.9872 95.6549C69.1665 99.0352 75.3538 101 82 101C100.225 101 115 86.2254 115 68C115 61.3538 113.035 55.1665 109.655 49.9872L63.9872 95.6549Z" fill="white"/>
<rect x="141.72" y="0.760803" width="6" height="181" rx="3" transform="rotate(45 141.72 0.760803)" fill="white"/>
</svg>
