<svg width="219" height="219" viewBox="0 0 219 219" fill="none" xmlns="http://www.w3.org/2000/svg">
<path d="M98.8934 10.6066C104.751 4.74874 114.249 4.74874 120.107 10.6066L208.393 98.8934C214.251 104.751 214.251 114.249 208.393 120.107L120.107 208.393C114.249 214.251 104.751 214.251 98.8934 208.393L10.6066 120.107C4.74874 114.249 4.74874 104.751 10.6066 98.8934L98.8934 10.6066Z" fill="#B6B2AF"/>
<g style="mix-blend-mode:soft-light">
<path d="M98.1863 71.3137C104.435 65.0653 114.565 65.0653 120.814 71.3137L147.686 98.1863C153.935 104.435 153.935 114.565 147.686 120.814L120.814 147.686C114.565 153.935 104.435 153.935 98.1863 147.686L71.3137 120.814C65.0653 114.565 65.0653 104.435 71.3137 98.1863L98.1863 71.3137Z" fill="black"/>
</g>
</svg>
