<svg width="189" height="189" viewBox="0 0 189 189" fill="none" xmlns="http://www.w3.org/2000/svg">
<circle cx="94.5" cy="94.5" r="94.5" fill="black"/>
<path d="M72 68.5C72 57.1782 81.1782 48 92.5 48H97.5C108.822 48 118 57.1782 118 68.5V89H72V68.5Z" fill="white"/>
<path d="M79 71C79 62.1634 86.1634 55 95 55H96C104.284 55 111 61.7157 111 70V81C111 81.5523 110.552 82 110 82H79V71Z" fill="black"/>
<rect x="54" y="82" width="82" height="45" fill="black"/>
<path d="M54 104C54 95.7157 60.7157 89 69 89H121C129.284 89 136 95.7157 136 104V126C136 134.284 129.284 141 121 141H69C60.7157 141 54 134.284 54 126V104Z" fill="white"/>
<path d="M91 110H99V125C99 127.209 97.2091 129 95 129C92.7909 129 91 127.209 91 125V110Z" fill="black"/>
<path d="M102 112C102 115.866 98.866 119 95 119C91.134 119 88 115.866 88 112C88 108.134 91.134 105 95 105C98.866 105 102 108.134 102 112Z" fill="black"/>
</svg>
