<svg width="301" height="301" viewBox="0 0 301 301" fill="none" xmlns="http://www.w3.org/2000/svg">
<path d="M143 45.33C147.642 42.6505 153.359 42.6505 158 45.33L237.83 91.4197C242.471 94.0992 245.33 99.0511 245.33 104.41V196.59C245.33 201.949 242.471 206.901 237.83 209.58L158 255.67C153.359 258.349 147.642 258.349 143 255.67L63.1707 209.58C58.5297 206.901 55.6707 201.949 55.6707 196.59V104.41C55.6707 99.0512 58.5297 94.0992 63.1707 91.4198L143 45.33Z" fill="#E7B95E"/>
<path d="M196.59 55.6702C201.949 55.6702 206.901 58.5292 209.58 63.1702L255.67 143C258.35 147.641 258.35 153.359 255.67 158L209.58 237.83C206.901 242.471 201.949 245.33 196.59 245.33L104.41 245.33C99.0515 245.33 94.0996 242.471 91.4201 237.83L45.3303 158C42.6508 153.359 42.6508 147.641 45.3303 143L91.4201 63.1702C94.0996 58.5292 99.0515 55.6702 104.41 55.6702L196.59 55.6702Z" fill="#E7B95E"/>
<path d="M104.078 159.135C107.153 155.589 112.522 155.206 116.068 158.282L147.257 185.323C150.804 188.399 151.186 193.767 148.111 197.314C145.036 200.861 139.667 201.243 136.121 198.168L104.932 171.126C101.385 168.051 101.003 162.682 104.078 159.135Z" fill="white"/>
<path d="M195.913 111.429C199.818 114.034 200.873 119.311 198.269 123.217L149.369 196.545C146.765 200.451 141.487 201.506 137.581 198.901C133.676 196.297 132.621 191.019 135.225 187.114L184.125 113.785C186.73 109.879 192.007 108.825 195.913 111.429Z" fill="white"/>
</svg>
