<svg width="300" height="301" viewBox="0 0 300 301" fill="none" xmlns="http://www.w3.org/2000/svg">
<path d="M142.08 45.33C146.721 42.6505 152.439 42.6505 157.08 45.33L236.91 91.4197C241.551 94.0992 244.41 99.0511 244.41 104.41V196.59C244.41 201.949 241.551 206.901 236.91 209.58L157.08 255.67C152.439 258.349 146.721 258.349 142.08 255.67L62.2503 209.58C57.6093 206.901 54.7503 201.949 54.7503 196.59V104.41C54.7503 99.0512 57.6093 94.0992 62.2503 91.4198L142.08 45.33Z" fill="#DC3A3A"/>
<path d="M195.67 55.6702C201.029 55.6702 205.98 58.5292 208.66 63.1702L254.75 143C257.429 147.641 257.429 153.359 254.75 158L208.66 237.83C205.98 242.471 201.029 245.33 195.67 245.33L103.49 245.33C98.1311 245.33 93.1791 242.471 90.4997 237.83L44.4099 158C41.7304 153.359 41.7304 147.641 44.4099 143L90.4997 63.1702C93.1791 58.5292 98.1311 55.6702 103.49 55.6702L195.67 55.6702Z" fill="#DC3A3A"/>
<rect x="171.869" y="118.595" width="13.5647" height="75.4591" transform="rotate(45 171.869 118.595)" fill="white"/>
<rect x="209.782" y="156.57" width="13.5647" height="40.1731" transform="rotate(135 209.782 156.57)" fill="white"/>
<rect x="128.157" y="162.362" width="13.5647" height="40.9043" transform="rotate(135 128.157 162.362)" fill="white"/>
<rect x="181.186" y="172.228" width="13.5647" height="75.4591" transform="rotate(135 181.186 172.228)" fill="white"/>
<rect x="143.212" y="210.14" width="13.5647" height="40.1731" transform="rotate(-135 143.212 210.14)" fill="white"/>
<rect x="137.42" y="128.515" width="13.5647" height="40.9043" transform="rotate(-135 137.42 128.515)" fill="white"/>
</svg>
